<svg width="1583" height="574" viewBox="0 0 1583 574" fill="none" xmlns="http://www.w3.org/2000/svg">
<path fill-rule="evenodd" clip-rule="evenodd" d="M146.528 169.979C146.528 109.532 160.344 56.8111 188.756 24.5424C203.093 8.18078 220.037 0 239.326 0C258.616 0 275.298 8.18078 289.635 24.5424C303.972 40.4495 314.659 61.356 321.697 86.8074C328.735 111.804 332.124 139.528 332.124 169.979C332.124 230.426 318.569 283.147 289.635 315.87C275.298 331.777 258.616 339.958 239.326 339.958C220.037 339.958 203.093 331.777 188.756 315.87C174.42 299.508 163.993 278.602 156.955 253.605C149.917 228.154 146.528 200.43 146.528 169.979ZM178.33 106.35C163.993 165.888 170.51 244.061 201.269 283.601C211.956 296.781 224.468 303.599 239.326 303.599C254.184 303.599 266.696 296.781 277.384 283.601C288.071 269.966 295.63 253.15 300.322 233.607C314.399 174.069 308.143 95.4427 277.384 56.8111C266.696 43.1764 254.184 36.3591 239.326 36.3591C224.468 36.3591 211.956 43.1764 201.269 56.8111C190.581 69.9913 183.022 86.8074 178.33 106.35ZM0 44.0854L0 7.72629L148.581 7.72629V44.0854H86.5419V332.231H62.039L62.039 44.0854H0ZM496.367 7.72629H471.604V214.973C471.604 242.263 467.817 263.558 460.49 278.428C453.798 284.555 447.848 291.296 442.992 298.482C437.202 301.875 430.568 303.599 423.12 303.599C389.754 303.599 371.507 272.693 371.507 214.973V7.72629L346.744 7.72629V214.973C346.744 299.054 373.853 339.958 423.12 339.958C425.268 339.958 427.374 339.867 429.436 339.687C429.688 361.119 442.269 375.729 463.84 375.729C501.689 375.729 525.775 329.851 538.391 300.031L532.656 295.443C524.628 322.969 494.807 368.847 464.987 368.847C445.787 368.847 436.596 356.613 436.32 338.717C464.308 333.213 483.262 309.46 491.58 268.725C501.066 262.32 511.091 257.104 521.07 253.964C524.885 267.794 529.772 280.552 535.718 292.236C544.469 309.19 554.923 321.627 567.04 329.546C543.488 369.329 496.384 417.855 429.432 443.398C302.352 491.97 284.299 508.836 225.711 563.572C224.811 564.412 223.902 565.262 222.983 566.12L226.424 569.561C240.187 558.092 257.391 546.622 275.742 546.622C292.946 546.622 313.591 552.931 333.089 559.812C335.981 560.721 338.85 561.642 341.686 562.553C358.531 567.961 374.234 573.002 386.995 573.002C423.947 573.002 447.511 549.315 469.397 527.314C470.608 526.097 471.813 524.886 473.015 523.684L468.428 519.096C453.517 535.153 432.873 548.916 409.934 548.916C391.009 548.916 372.658 543.182 355.454 537.447L355.123 537.333L354.456 537.103L353.535 536.785C337.59 531.279 322.236 525.978 309.003 525.978C289.505 525.978 273.448 534.006 260.832 540.888H258.538C291.799 509.92 315.311 490.996 451.224 450.28C521.376 429.144 576.013 385.086 596.33 339.677C598.423 339.864 600.549 339.958 602.71 339.958C649.37 339.958 678.825 303.144 683.778 224.972H659.014C655.63 276.27 635.86 303.536 604.902 303.599C604.91 303.174 604.913 302.749 604.913 302.325C604.913 267.476 578.029 246.07 545.859 243.997C539.062 222.115 535.718 196.558 535.718 167.706C535.718 131.802 541.714 100.897 553.965 74.9907C566.216 49.0848 582.899 36.3591 604.013 36.3591C631.383 36.3591 651.716 57.7201 656.147 101.351H680.91C678.825 67.7189 670.744 42.2675 656.408 25.4514C642.332 8.63529 624.867 0 604.274 0C576.382 0 553.704 16.3616 536.5 49.0848C519.557 81.808 510.955 122.258 510.955 170.888C510.955 198.821 513.707 224.055 519.161 246.589C510.718 248.648 502.127 251.806 493.771 255.878C495.49 243.548 496.367 229.904 496.367 214.973V7.72629ZM548.224 251.075C545.806 250.835 543.29 250.712 540.685 250.712C534.281 250.712 527.685 251.882 521.07 253.964C520.4 251.539 519.764 249.081 519.161 246.589C526.534 244.791 533.794 243.831 540.685 243.831C542.422 243.831 544.148 243.886 545.859 243.997C546.606 246.401 547.394 248.76 548.224 251.075ZM548.224 251.075C570.295 253.26 584.268 265.141 584.268 281.68C584.268 286.235 583.355 291.656 581.554 297.727C570.619 291.623 561.423 280.737 553.965 264.967C551.869 260.534 549.956 255.902 548.224 251.075ZM581.554 297.727C578.785 307.062 573.916 317.931 567.04 329.546C575.916 335.347 585.684 338.724 596.33 339.677C601.728 327.611 604.703 315.45 604.902 303.599C604.867 303.599 604.831 303.599 604.795 303.599C596.33 303.599 588.583 301.65 581.554 297.727ZM493.771 255.878C481.818 261.703 470.349 269.4 460.49 278.428C455.979 287.582 450.127 294.3 442.992 298.482C434.565 310.951 429.432 324.76 429.432 339.027C429.432 339.247 429.433 339.467 429.436 339.687C431.788 339.481 434.083 339.157 436.32 338.717C436.315 338.439 436.313 338.16 436.313 337.88C436.313 322.021 461.174 289.258 491.58 268.725C492.419 264.615 493.15 260.332 493.771 255.878ZM825.388 151.345H724.77V7.72629H700.006V295.129C611.149 358.558 515.694 466.146 515.694 531.712C515.694 559.239 535.765 573.002 559.851 573.002C663.68 573.002 798.363 407.808 837.359 332.231H850.151V310.297C859.658 304.74 868.541 298.35 875.601 290.025V332.231H889.712C889.458 334.482 889.327 336.749 889.327 339.027C889.327 360.818 901.943 375.729 923.735 375.729C961.584 375.729 985.67 329.851 998.286 300.031L992.551 295.443C984.523 322.969 954.702 368.847 924.882 368.847C905.384 368.847 896.209 356.231 896.209 337.88C896.209 336.179 896.494 334.285 897.042 332.231H900.365V323.682C914.36 295.161 961.107 250.712 1000.58 250.712C1012.88 250.712 1023.19 253.457 1030.69 258.248C1034.16 269.64 1038.38 280.141 1043.38 289.704C1036.33 329.107 981.735 408.144 889.327 443.398C762.248 491.971 744.194 508.836 685.606 563.572L684.255 564.834L682.878 566.12L686.319 569.561C700.082 558.092 717.286 546.622 735.637 546.622C752.841 546.622 773.486 552.931 792.984 559.812C795.877 560.721 798.745 561.642 801.582 562.553C818.427 567.961 834.129 573.002 846.89 573.002C883.842 573.002 907.406 549.315 929.293 527.314C930.503 526.097 931.708 524.886 932.911 523.684L928.323 519.096C913.413 535.153 892.768 548.916 869.829 548.916C850.905 548.916 832.553 543.182 815.349 537.447C814.709 537.226 814.069 537.005 813.43 536.785C797.485 531.279 782.132 525.978 768.898 525.978C749.4 525.978 733.343 534.006 720.727 540.888H718.433C751.694 509.92 775.207 490.996 911.119 450.28C992.369 425.8 1052.81 370.574 1063.22 318.11C1076.32 331.738 1091.53 339.107 1108.64 339.888C1108.97 361.211 1121.54 375.729 1143.04 375.729C1180.89 375.729 1204.98 329.851 1217.59 300.031L1211.86 295.443C1203.83 322.969 1174.01 368.847 1144.19 368.847C1125.4 368.847 1116.19 357.126 1115.55 339.847C1133.22 338.824 1148.63 330.708 1162.01 315.87C1175.85 300.219 1186.17 279.995 1193.17 256.538C1202.14 252.869 1211.19 250.712 1219.89 250.712C1220.68 250.712 1221.47 250.724 1222.25 250.747V332.231H1244.62C1220.57 371.491 1174.09 418.427 1108.63 443.398C981.555 491.97 963.502 508.836 904.913 563.572L902.185 566.12L905.626 569.561C919.389 558.092 936.593 546.622 954.944 546.622C972.148 546.622 992.793 552.931 1012.29 559.812C1015.18 560.721 1018.05 561.642 1020.89 562.553C1037.73 567.961 1053.44 573.002 1066.2 573.002C1103.15 573.002 1126.71 549.315 1148.6 527.314C1149.81 526.098 1151.02 524.886 1152.22 523.684L1147.63 519.096C1132.72 535.153 1112.07 548.916 1089.14 548.916C1070.21 548.916 1051.86 543.182 1034.66 537.447C1034.14 537.269 1033.63 537.091 1033.11 536.913L1032.74 536.785C1016.79 531.279 1001.44 525.978 988.206 525.978C968.708 525.978 952.65 534.006 940.034 540.888H937.74C971.001 509.92 994.514 490.996 1130.43 450.28C1204.41 427.99 1261.13 380.208 1278.55 332.231H1297.55V71.8093H1298.07L1399.47 332.231H1426.58V7.72629H1403.12V270.875H1402.6L1300.42 7.72629L1274.09 7.72629V269.348C1267.49 260.007 1258.04 253.025 1247.01 248.747V7.72629L1222.25 7.72629V243.865C1221.46 243.842 1220.68 243.831 1219.89 243.831C1212.18 243.831 1204 245.034 1195.72 247.268C1201.63 223.934 1204.5 197.773 1204.5 169.979C1204.5 139.528 1201.11 111.804 1194.07 86.8074C1187.03 61.356 1176.35 40.4495 1162.01 24.5424C1147.67 8.18078 1130.99 0 1111.7 0C1092.41 0 1075.47 8.18078 1061.13 24.5424C1032.72 56.8111 1018.9 109.532 1018.9 169.979C1018.9 198.561 1021.89 224.74 1028.07 248.893C1019.65 245.57 1010.3 243.831 1000.58 243.831C965.466 243.831 920.759 268.772 900.365 302.418V199.521H955.105C991.859 199.975 1012.19 164.98 1012.19 103.623C1012.19 42.2675 991.859 7.72629 955.105 7.72629L875.601 7.72629V276.092C869.621 286.44 861.098 294.672 850.151 302.221V7.72629L825.388 7.72629V151.345ZM825.388 270.247C825.761 270.223 826.136 270.21 826.514 270.21C839.131 270.21 847.159 278.239 847.159 289.708C847.159 294.296 847.159 298.884 846.012 303.472H848.306C848.929 303.056 849.544 302.64 850.151 302.221V310.297C848.783 311.096 847.402 311.879 846.012 312.647C844.15 318.129 841.225 324.74 837.359 332.231H828.928C832.865 325.582 836.286 319.397 839.131 313.794L837.984 312.647C834.78 314.783 830.581 314.93 825.388 314.94V270.247ZM825.388 252.146V270.247C814.45 270.966 805.869 282.039 805.869 292.576C805.869 305.765 814.471 314.941 824.22 314.941C824.615 314.941 825.004 314.941 825.388 314.94V332.231H828.928C780.477 414.061 653.856 566.12 561.571 566.12C543.22 566.12 529.457 559.239 529.457 543.182C529.457 509.339 619.419 402.713 700.006 328.031V332.231H724.77V305.854C762.67 273.167 795.861 250.712 812.751 250.712C817.25 250.712 821.435 251.026 825.388 252.146ZM825.388 245.082C830.928 246.405 835.809 248.881 840.277 253.006L835.69 257.594C832.407 254.858 828.994 253.167 825.388 252.146V245.082ZM825.388 245.082C821.686 244.199 817.689 243.831 813.324 243.831C790.435 243.831 758.852 257.133 724.77 278.505V187.704H825.388V245.082ZM724.77 278.505C716.63 283.61 708.347 289.175 700.006 295.129V328.031C708.4 320.253 716.692 312.821 724.77 305.854V278.505ZM1163.39 261.015C1173.8 254.914 1184.85 250.202 1195.72 247.268C1194.93 250.41 1194.08 253.501 1193.17 256.538C1153.61 272.708 1115.52 318.248 1115.52 337.88C1115.52 338.543 1115.53 339.199 1115.55 339.847C1114.28 339.921 1113 339.958 1111.7 339.958C1110.67 339.958 1109.65 339.935 1108.64 339.888C1108.64 339.602 1108.63 339.315 1108.63 339.027C1108.63 326.449 1112.62 314.227 1119.34 302.965C1130.91 300.997 1140.95 294.457 1149.76 283.601C1155.06 276.837 1159.59 269.29 1163.39 261.015ZM1163.39 261.015C1145.43 271.535 1129.35 286.185 1119.34 302.965C1116.87 303.387 1114.32 303.599 1111.7 303.599C1096.84 303.599 1084.33 296.781 1073.64 283.601C1042.88 244.061 1036.37 165.888 1050.7 106.35C1055.4 86.8074 1062.95 69.9913 1073.64 56.8111C1084.33 43.1764 1096.84 36.3591 1111.7 36.3591C1126.56 36.3591 1139.07 43.1764 1149.76 56.8111C1180.52 95.4427 1186.77 174.069 1172.7 233.607C1170.33 243.455 1167.24 252.61 1163.39 261.015ZM1247.01 256.525C1240.38 253.08 1231.98 251.031 1222.25 250.747V243.865C1230.98 244.119 1239.37 245.785 1247.01 248.747V256.525ZM1247.01 256.525C1257.43 261.94 1263.47 270.802 1263.47 281.68C1263.47 292.977 1257.85 309.601 1247.01 328.24V256.525ZM1274.09 269.348V332.231H1278.55C1282.19 322.194 1284.12 312.148 1284.12 302.325C1284.12 289.376 1280.4 278.283 1274.09 269.348ZM1247.01 328.24V332.231H1244.62C1245.45 330.892 1246.24 329.561 1247.01 328.24ZM1028.07 248.893C1028.48 250.472 1028.9 252.043 1029.33 253.605C1029.77 255.169 1030.22 256.717 1030.69 258.248C1039.27 263.729 1044.16 271.888 1044.16 281.68C1044.16 284.117 1043.9 286.803 1043.38 289.704C1048.46 299.407 1054.36 308.145 1061.13 315.87C1061.82 316.635 1062.51 317.381 1063.22 318.11C1064.27 312.809 1064.81 307.535 1064.81 302.325C1064.81 275.991 1049.46 257.333 1028.07 248.893ZM900.365 302.418C894.68 311.797 890.884 321.852 889.712 332.231H897.042C897.74 329.614 898.864 326.74 900.365 323.682V302.418ZM875.601 276.092C879.38 269.553 882.143 262.169 883.861 253.58H890.743C889.047 269.125 883.45 280.77 875.601 290.025V276.092ZM900.365 44.0854V163.162H946.764C973.873 163.616 987.428 143.619 987.428 103.623C987.428 64.083 973.873 44.0854 946.764 44.0854H900.365ZM1433.98 44.0854V7.72629L1582.56 7.72629V44.0854L1520.52 44.0854V332.231H1496.02V44.0854H1433.98Z" fill="black"/>
</svg>
